<?xml version="1.0" encoding="UTF-8"?>
<svg id="Layer_1" data-name="Layer 1" xmlns="http://www.w3.org/2000/svg" viewBox="0 0 1080 1080">
  <defs>
    <style>
      .cls-1 {
        fill: #f0efef;
      }
    </style>
  </defs>
  <path class="cls-1" d="m1145.08,854.61c-6.41,11.38-13.09,22.82-20.04,34.17l-45.04,1.14-45.04-1.14c-6.95-11.35-13.63-22.79-20.04-34.17,21.66,2.08,43.38,2.07,65.08,2.68,21.7-.61,43.42-.6,65.08-2.68Z"/>
  <path class="cls-1" d="m223.24-43.93c-.51,21.7-1.55,43.41-.58,65.11-11.06-6.96-22.11-14.19-33.14-21.69l1.13-45.04c1.02-15,2.2-30,3.38-44.99,11.66-6.39,23.44-12.49,35.13-18.32-3.16,21.55-4.27,43.27-5.93,64.94Z"/>
  <path class="cls-1" d="m482.29-11.16c-.55,10.14.04,20.29.23,30.43-7.47,3.77-14.94,7.67-22.41,11.7,7.78,3.27,15.65,6.39,23.45,9.39.87,10.08,1.22,20.23,2.8,30.22-7.71-2.52-15.48-5.15-23.2-7.92-7.55-2.79-15.11-5.7-22.69-8.74-15.15-6.07-30.41-12.63-45.6-19.7,14.46-8.55,28.94-16.61,43.41-24.17,7.24-3.78,14.44-7.44,21.71-10.98,7.44-3.54,14.87-6.95,22.29-10.24Z"/>
  <path class="cls-1" d="m231.94,129.22c3.8,21.43,7.18,42.95,12.48,64.09-12.23-4.62-24.51-9.51-36.82-14.68-2.7-14.82-5.39-29.65-7.91-44.51-1.94-14.93-3.9-29.87-5.64-44.81,10.22-8.58,20.49-16.89,30.78-24.92,1.23,21.71,4.38,43.26,7.12,64.84Z"/>
  <path class="cls-1" d="m492.3,109.61c1.49,10,4.07,19.77,6.28,29.61-6.55,5.17-13.14,10.49-19.6,15.92,8.33,1.61,16.62,3.09,24.86,4.44l4.11,14.56c.62,2.45,1.43,4.84,2.27,7.21l2.45,7.16c-8.05-.9-16.14-1.92-24.29-3.05-8.13-1.14-15.97-2.5-24.04-3.92-16.05-2.87-32.26-6.23-48.6-10.07,12.4-11.26,25.02-22.06,37.67-32.34,6.35-5.15,12.66-10.16,19.09-15.07,6.58-4.94,13.18-9.76,19.8-14.45Z"/>
  <path class="cls-1" d="m268.52,123.66l-4.19-32.88c18.61,9.05,37.16,17.41,55.61,25.07-15.39,12.8-30.56,26.29-45.64,40.46l-5.78-32.65Z"/>
  <path class="cls-1" d="m259.74,251.01c1.43,5.26,3.37,10.35,5.05,15.53,3.54,10.3,6.85,20.68,10.64,30.88l11.98,30.39c1.92,5.1,4.22,10.03,6.45,15l6.72,14.88c-12.87-2.06-25.85-4.38-38.93-6.96-1.59-3.42-3.02-6.91-4.38-10.42l-4.17-10.51-8.27-21.05c-5.16-14.16-9.81-28.51-14.65-42.79,8.14-10.44,16.63-20.71,25.08-30.67l4.49,15.71Z"/>
  <path class="cls-1" d="m526.32,225.49l2.77,7.04,3.15,6.89,6.23,13.8-8.07,9.71c-2.65,3.26-5.17,6.49-7.74,9.78,8.45-.1,16.84-.31,25.16-.64,2.33,4.48,4.52,9.03,6.93,13.47l7.58,13.12c-8.04.73-16.14,1.34-24.32,1.86-8.18.52-16.46.94-24.51,1.1-16.24.4-32.74.37-49.47-.11,2.41-3.36,4.78-6.66,7.26-9.99l7.59-9.94c5.09-6.57,10.22-13.02,15.4-19.35,10.39-12.68,20.77-24.8,32.04-36.75Z"/>
  <path class="cls-1" d="m322.28,315.43l-12.17-30.86c-3.83-10.37-7.2-20.91-10.79-31.37,20.08,5.1,39.71,9.61,59.56,13.3-12.47,15.66-24.68,31.97-36.6,48.93Z"/>
  <path class="cls-1" d="m327.27,411.06l8.11,14.16c5.47,9.4,10.68,18.97,16.71,28.03,5.88,9.15,11.67,18.36,17.7,27.41l18.9,26.59c-12.97.55-26.1.87-39.37.95l-6.52-9.22c-2.17-3.07-4.12-6.3-6.19-9.44l-12.19-19.01-6.05-9.53-5.66-9.78-11.26-19.59c5.66-11.76,11.9-23.52,18.23-35.02,2.54,4.81,4.87,9.74,7.59,14.45Z"/>
  <path class="cls-1" d="m366.53,405.16c20.65.95,40.58,1.52,61.06.93-9.06,17.86-18,36.48-26.07,55.35-6.25-9.1-12.03-18.53-18.04-27.8-6.14-9.19-11.36-18.95-16.95-28.48Z"/>
  <path class="cls-1" d="m559.24,374.69c7.7-14.57,15.51-28.62,23.87-42.44,5.75,8.32,11.73,16.47,17.51,24.78-3.88,7.29-7.66,14.66-11.38,22.16,8.23-1.76,16.37-3.63,24.43-5.59l4.66,5.99,4.98,5.73,9.94,11.48c-15.4,4.58-31.15,8.81-47.24,12.67-15.96,3.76-31.93,6.87-48.4,9.75,3.38-7.56,6.83-15.02,10.36-22.38,3.67-7.47,7.44-14.86,11.27-22.13Z"/>
  <path class="cls-1" d="m415.19,541.5c3.29,4.33,6.98,8.33,10.49,12.48l10.67,12.33c3.61,4.07,7.04,8.29,10.8,12.21l11.23,11.82c14.74,15.99,30.72,30.76,46.56,45.63-12.69,3.23-25.34,6.03-38.3,8.75l-16.3-15.6-15.6-16.3c-5.16-5.47-10.44-10.84-15.46-16.43l-14.8-17.04c1.66-6.39,3.38-12.72,5.14-19.01,1.74-6.27,3.56-12.51,5.57-18.83Z"/>
  <path class="cls-1" d="m639.05,495.71c2.02-7.96,4.06-15.77,6.44-23.76,4.65-15.85,9.65-31.36,14.98-46.49l11,10.47,5.48,5.26c1.82,1.76,3.81,3.32,5.71,5-2.36,7.94-4.62,15.97-6.79,24.09,7.68-3.34,15.25-6.76,22.72-10.26l23.82,18.81c-14.13,7.52-28.65,14.73-43.58,21.67-7.44,3.43-15.1,6.93-22.63,10.09-7.54,3.16-15.17,6.24-22.9,9.24,1.83-8.12,3.75-16.16,5.75-24.11Z"/>
  <path class="cls-1" d="m683.18,569.65c-5.68,49.18-6.94,99.71-3.75,151.35,11.27-5.93,22.54-12.42,33.55-19.01,11-6.58,21.76-13.29,32.27-20.12,10.45-6.71,20.94-14.14,31.06-21.44,10.14-7.35,20.03-14.81,29.67-22.38.5,6.26,1.14,12.38,1.86,18.47.71,6.12,1.49,12.27,2.32,18.44,1.68,12.35,3.61,24.8,5.81,37.35,4.51,24.78,10.23,49.48,16.93,74.73,19.87-16.75,38.77-34.13,56.55-51.65,17.93-18.11,34.81-36.59,50.59-55.23,7.2,23.33,15.47,46.97,24.86,70.66,9.47,23.11,20.02,46.45,31.69,69.73,16.06-20.56,31.04-41.21,44.92-62.03,13.91-21.39,26.74-42.84,38.49-64.27,11.75,21.43,24.58,42.88,38.49,64.27,13.88,20.81,28.86,41.46,44.92,62.03,11.66-23.28,22.22-46.62,31.69-69.73,9.38-23.69,17.66-47.32,24.86-70.66,15.78,18.65,32.66,37.13,50.59,55.23,17.78,17.52,36.68,34.9,56.54,51.65,6.7-25.25,12.42-49.96,16.93-74.73,2.2-12.55,4.13-25,5.81-37.35.84-6.17,1.61-12.32,2.32-18.44.72-6.09,1.36-12.21,1.86-18.47,9.64,7.57,19.53,15.03,29.67,22.38,10.12,7.3,20.61,14.73,31.06,21.44,10.51,6.83,21.27,13.55,32.27,20.12,11.01,6.59,22.28,13.08,33.55,19.01,3.18-51.64,1.92-102.17-3.75-151.35,21.97,10.99,45.06,21.65,68.32,30.69,11.71,4.63,23.63,9.09,35.77,13.37,6.11,2.19,12.13,4.17,18.19,6.09,6.07,1.94,12.2,3.83,18.38,5.67-1.82-12.81-3.85-25.44-6.09-37.89-2.31-12.53-5.05-25.13-7.87-37.41-2.85-12.31-5.89-24.43-9.13-36.36-3.45-12.14-7.09-24.08-10.92-35.82,11.9,3.22,24.13,6.36,36.29,9.08,12.09,2.65,24.36,5.09,36.81,7.32,6.22,1.12,12.49,2.18,18.8,3.19,6.33,1.02,12.68,1.98,18.92,2.75,12.56,1.62,25.3,3.02,38.19,4.2-8.37-24.13-18.38-48.11-28.74-70.98-2.6-5.73-5.24-11.39-7.92-17.01-2.68-5.61-5.61-11.31-8.46-16.88-5.76-11.16-11.67-22.1-17.72-32.8,6.19.41,12.44.77,18.69,1.05,6.14.22,12.32.37,18.53.47,12.43.2,24.99.16,37.69-.12,12.81-.22,25.33-.92,38-1.84,12.69-.92,25.5-2.08,38.43-3.49-6.46-10.94-13.66-21.94-20.73-32.56-7.12-10.65-14.35-21.04-21.7-31.19-3.62-5.05-7.44-10.11-11.34-15.12-3.87-5-7.77-9.94-11.69-14.82-7.84-9.75-15.79-19.24-23.83-28.47,24.39-3.47,48.74-8.14,73.66-13.77,24.42-5.8,48.9-12.74,73.77-20.72-17.83-19-36.06-36.97-54.48-53.84-19.06-17-38.28-32.9-57.76-47.72,22.94-8.38,46.14-17.84,69.31-28.41,22.6-10.62,45.37-22.34,68.05-35.15-21.33-15-42.76-28.91-64.19-41.74-22.06-12.83-44.14-24.58-66.13-35.24,20.87-12.79,41.6-26.68,62.27-41.65,20.11-14.92,39.96-30.92,59.69-48.01-23.85-10.48-47.68-19.84-71.24-28.12-24.19-8.16-48.13-15.23-71.86-21.22,17.8-16.7,35.49-34.53,52.57-53.34,16.58-18.65,33.07-38.45,48.7-59.11-12.74-2.72-25.39-5.17-37.95-7.36-6.28-1.1-12.53-2.13-18.76-3.1-6.2-.98-12.42-1.87-18.79-2.63-12.63-1.56-25.16-2.86-37.56-3.91-12.46-1.03-24.55-1.93-37.11-2.29,7.08-10.01,14.04-20.28,20.87-30.79,6.85-10.52,13.6-21.3,19.8-32.09,6.3-10.85,12.47-21.94,18.5-33.27,3.01-5.66,5.99-11.38,8.93-17.16,2.83-5.71,5.59-11.46,8.33-17.28-12.98-.11-25.82.01-38.51.37-6.37.2-12.59.37-18.99.76-6.4.38-12.75.82-19.07,1.31-25.32,2.01-49.73,4.71-74.39,8.96,4.97-11.28,9.77-22.77,14.39-34.48,2.36-5.89,4.52-11.7,6.61-17.56,2.11-5.86,4.18-11.78,6.2-17.75,4.04-11.94,7.91-24.08,11.59-36.43,3.6-12.27,6.76-24.52,9.87-37.08-12.69,2.45-25.19,5.1-37.5,7.96-12.52,3.06-24.86,6.33-37,9.78-12.17,3.48-24.01,7.02-35.88,10.99-11.94,4.05-23.67,8.27-35.19,12.68,1.33-6.05,2.6-12.14,3.82-18.27,1.23-6.15,2.4-12.33,3.39-18.4,2.04-12.22,3.88-24.61,5.49-37.17,3.39-25.33,5.2-50.39,6.31-76.34-47.69,19.66-92.7,43.19-134.3,69.71.26-12.54.05-24.8-.38-37.22-.43-12.43-1.1-25-2.01-37.68-.86-12.81-2.26-25.14-3.79-37.83-1.56-12.64-3.36-25.39-5.43-38.24-5.3,3.51-10.62,7.23-15.89,11.02-5.26,3.76-10.46,7.56-15.59,11.37-10.27,7.64-20.28,15.38-30.03,23.23-19.62,16.01-38.37,32.86-55.95,49.77-4.74-24.09-10.61-48.26-17.52-72.86-7.06-24.01-15.22-48.2-24.46-72.61-18.08,18.84-35.07,37.87-50.99,57.18-16,19.89-30.91,39.88-44.73,60.1-9.54-22.49-20.16-45.18-31.88-67.8-11.75-22.05-24.58-44.15-38.49-66.21-13.91,22.06-26.74,44.16-38.49,66.21-11.72,22.63-22.34,45.31-31.88,67.8-13.82-20.22-28.73-40.21-44.73-60.1-15.92-19.31-32.91-38.34-50.99-57.18-9.24,24.41-17.4,48.6-24.46,72.6-6.91,24.59-12.78,48.77-17.52,72.86-17.59-16.92-36.33-33.77-55.95-49.77-9.75-7.84-19.76-15.59-30.03-23.23-5.13-3.82-10.33-7.61-15.59-11.38-5.27-3.79-10.59-7.5-15.89-11.02-2.07,12.85-3.88,25.6-5.43,38.24-1.53,12.69-2.93,25.02-3.79,37.83-.92,12.68-1.59,25.25-2.02,37.68-.43,12.42-.64,24.67-.38,37.22-41.6-26.53-86.62-50.06-134.3-69.71,1.1,25.95,2.92,51.01,6.31,76.34,1.61,12.56,3.45,24.95,5.49,37.17.99,6.06,2.15,12.24,3.39,18.4,1.22,6.14,2.5,12.23,3.82,18.27-11.52-4.4-23.26-8.63-35.19-12.68-11.86-3.96-23.71-7.5-35.88-10.99-12.14-3.45-24.47-6.71-37-9.78-12.31-2.85-24.82-5.51-37.5-7.96,3.11,12.56,6.27,24.81,9.87,37.08,3.68,12.34,7.54,24.49,11.59,36.43,2.02,5.97,4.09,11.89,6.2,17.75,2.1,5.85,4.25,11.67,6.61,17.56,4.63,11.71,9.43,23.2,14.39,34.48-24.66-4.25-49.07-6.96-74.39-8.96-6.32-.49-12.68-.93-19.07-1.31-6.4-.38-12.61-.56-18.99-.76-12.69-.36-25.53-.49-38.51-.37,2.74,5.82,5.5,11.57,8.33,17.28,2.94,5.78,5.91,11.5,8.93,17.16,6.02,11.33,12.19,22.42,18.5,33.27,6.19,10.79,12.95,21.58,19.8,32.09,6.83,10.51,13.8,20.78,20.87,30.79-12.57.36-24.65,1.26-37.11,2.29-12.41,1.05-24.93,2.35-37.56,3.91-6.37.76-12.59,1.65-18.79,2.63-6.23.97-12.48,2-18.76,3.1-12.56,2.19-25.21,4.65-37.95,7.36,15.62,20.66,32.11,40.46,48.7,59.11,17.08,18.81,34.77,36.64,52.57,53.34-23.73,5.98-47.67,13.06-71.85,21.22-23.56,8.28-47.39,17.65-71.24,28.12,19.73,17.09,39.58,33.09,59.69,48.01,20.67,14.97,41.4,28.86,62.27,41.65-22,10.66-44.07,22.41-66.13,35.24-21.43,12.83-42.85,26.74-64.19,41.74,22.68,12.81,45.44,24.52,68.05,35.15,23.17,10.57,46.37,20.03,69.32,28.41-19.48,14.82-38.7,30.73-57.76,47.72-18.43,16.87-36.66,34.83-54.48,53.84,24.87,7.98,49.35,14.92,73.77,20.72,24.92,5.64,49.27,10.31,73.66,13.77-8.04,9.23-15.98,18.72-23.83,28.47-3.92,4.88-7.82,9.82-11.69,14.82-3.9,5.02-7.72,10.07-11.34,15.12-7.35,10.14-14.59,20.54-21.7,31.19-7.06,10.62-14.26,21.62-20.73,32.56,12.93,1.42,25.74,2.58,38.43,3.49,12.68.92,25.19,1.62,38,1.84,12.7.28,25.27.32,37.7.12,6.21-.1,12.39-.26,18.53-.47,6.25-.28,12.5-.64,18.69-1.05-6.05,10.7-11.96,21.63-17.72,32.8-2.85,5.56-5.78,11.27-8.46,16.88-2.68,5.61-5.32,11.28-7.92,17.01-10.36,22.87-20.37,46.85-28.74,70.98,12.9-1.18,25.63-2.58,38.19-4.2,6.24-.77,12.59-1.73,18.92-2.75,6.31-1.01,12.58-2.08,18.81-3.19,12.45-2.23,24.72-4.68,36.81-7.32,12.17-2.72,24.39-5.86,36.29-9.08-3.83,11.74-7.47,23.68-10.92,35.82-3.24,11.93-6.29,24.05-9.13,36.36-2.82,12.28-5.56,24.88-7.87,37.41-2.24,12.45-4.27,25.09-6.09,37.89,6.18-1.84,12.3-3.73,18.38-5.67,6.06-1.92,12.09-3.9,18.19-6.09,12.13-4.28,24.06-8.74,35.77-13.37,23.26-9.05,46.35-19.7,68.32-30.69Zm37.35-53.56c-21.07,11.62-43.28,22.93-65.67,32.65-11.28,4.97-22.77,9.77-34.48,14.4-5.89,2.36-11.7,4.52-17.56,6.61-5.86,2.11-11.78,4.18-17.75,6.2,2.23-12.45,4.68-24.72,7.32-36.81,2.72-12.17,5.86-24.39,9.08-36.29,3.24-11.93,6.68-23.67,10.31-35.21,3.84-11.75,7.87-23.3,12.07-34.65-11.52,3.61-23.38,7.16-35.18,10.28-11.72,3.05-23.63,5.91-35.72,8.56-6.05,1.33-12.14,2.6-18.27,3.82-6.15,1.23-12.33,2.4-18.4,3.39-12.22,2.04-24.61,3.88-37.17,5.49,9.05-23.26,19.71-46.35,30.7-68.32,2.76-5.5,5.55-10.94,8.39-16.33,2.83-5.38,5.92-10.86,8.92-16.19,6.06-10.71,12.27-21.18,18.62-31.41-6.05.64-12.15,1.24-18.26,1.76-6,.45-12.03.85-18.11,1.18-12.15.67-24.44,1.12-36.87,1.32-12.54.26-24.8.05-37.22-.38-12.43-.43-25-1.09-37.68-2.01,6.71-10.45,14.15-20.94,21.44-31.06,7.35-10.14,14.81-20.03,22.38-29.67,3.73-4.8,7.66-9.6,11.66-14.36,3.98-4.75,7.98-9.43,12-14.05,8.05-9.24,16.2-18.21,24.43-26.92-24.01-2.43-47.99-6.04-72.58-10.62-24.09-4.74-48.26-10.61-72.86-17.52,18.11-17.93,36.59-34.81,55.24-50.59,19.28-15.91,38.7-30.72,58.35-44.45-22.78-7.29-45.84-15.66-68.91-25.13-22.5-9.54-45.18-20.16-67.81-31.87,21.39-13.91,42.84-26.74,64.27-38.49,22.07-11.75,44.11-22.4,66.06-31.98-20.92-11.7-41.74-24.49-62.52-38.38-20.22-13.82-40.21-28.73-60.1-44.73,23.69-9.38,47.33-17.65,70.66-24.85,23.97-7.07,47.66-13.06,71.11-17.97-18.08-15.63-36.07-32.39-53.49-50.14-16.92-17.59-33.77-36.33-49.78-55.95,12.55-2.2,25-4.13,37.35-5.81,6.18-.84,12.32-1.61,18.44-2.32,6.09-.72,12.21-1.36,18.47-1.86,12.41-1.05,24.71-1.84,36.89-2.39,12.23-.52,24.08-.92,36.4-.79-7.32-9.52-14.53-19.29-21.63-29.31-7.1-10.03-14.12-20.32-20.59-30.63-6.57-10.37-13.02-20.98-19.32-31.83-3.15-5.43-6.27-10.91-9.35-16.46-2.97-5.48-5.88-10.99-8.76-16.58,12.69.36,25.23.95,37.62,1.77,6.22.43,12.29.83,18.53,1.44,6.24.61,12.44,1.27,18.61,1.99,24.69,2.91,48.45,6.5,72.44,11.62-5.3-10.84-10.44-21.91-15.42-33.19-2.53-5.68-4.86-11.28-7.14-16.92-2.29-5.66-4.53-11.36-6.74-17.12-4.4-11.52-8.63-23.26-12.68-35.19-3.97-11.86-7.51-23.71-10.99-35.88,12.31,2.85,24.43,5.9,36.36,9.14,12.14,3.45,24.08,7.1,35.82,10.93,11.77,3.86,23.22,7.77,34.67,12.11,11.53,4.41,22.85,9,33.96,13.76-1.53-5.87-3.02-11.78-4.45-17.74-1.44-5.98-2.82-11.98-4.02-17.87-2.47-11.87-4.73-23.92-6.78-36.15-4.25-24.66-6.96-49.07-8.97-74.39,45.88,20.92,89.03,45.62,128.7,73.22-.74-12.27-1.02-24.27-1.08-36.43-.07-12.18.11-24.49.53-36.93.36-12.57,1.26-24.65,2.29-37.11,1.05-12.41,2.35-24.93,3.91-37.57,5.05,3.62,10.11,7.44,15.12,11.34,5,3.87,9.94,7.77,14.82,11.69,9.75,7.84,19.24,15.79,28.47,23.83,18.58,16.4,36.27,33.61,52.8,50.86,3.68-23.76,8.48-47.63,14.31-71.94,5.98-23.73,13.06-47.67,21.21-71.86,17,19.06,32.9,38.29,47.72,57.77,14.92,20.06,28.73,40.19,41.45,60.52,8.45-22.39,17.97-44.99,28.6-67.56,10.66-22,22.41-44.07,35.23-66.14,12.83,22.07,24.57,44.14,35.24,66.14,10.63,22.57,20.15,45.17,28.6,67.56,12.73-20.33,26.54-40.46,41.45-60.52,14.82-19.48,30.73-38.71,47.72-57.77,8.15,24.19,15.23,48.13,21.21,71.86,5.83,24.32,10.63,48.19,14.31,71.94,16.53-17.25,34.22-34.46,52.8-50.86,9.23-8.04,18.72-15.98,28.47-23.83,4.88-3.92,9.82-7.82,14.82-11.69,5.02-3.9,10.07-7.72,15.12-11.34,1.56,12.63,2.86,25.16,3.91,37.57,1.03,12.46,1.92,24.55,2.29,37.11.42,12.44.6,24.75.53,36.93-.06,12.16-.34,24.16-1.08,36.43,39.67-27.6,82.82-52.3,128.7-73.22-2.01,25.32-4.71,49.73-8.97,74.39-2.05,12.22-4.31,24.27-6.78,36.15-1.2,5.89-2.58,11.9-4.02,17.87-1.43,5.96-2.92,11.88-4.45,17.74,11.11-4.76,22.43-9.35,33.96-13.76,11.46-4.33,22.91-8.25,34.67-12.11,11.74-3.83,23.69-7.47,35.82-10.93,11.93-3.24,24.05-6.29,36.36-9.14-3.48,12.17-7.02,24.02-10.99,35.88-4.05,11.94-8.27,23.67-12.68,35.19-2.2,5.76-4.45,11.47-6.74,17.12-2.27,5.64-4.6,11.24-7.14,16.92-4.98,11.28-10.12,22.35-15.42,33.19,23.99-5.12,47.75-8.71,72.44-11.62,6.16-.72,12.36-1.38,18.61-1.99,6.24-.61,12.31-1.01,18.53-1.44,12.39-.82,24.93-1.41,37.62-1.77-2.88,5.59-5.79,11.1-8.76,16.58-3.08,5.54-6.2,11.03-9.35,16.46-6.3,10.85-12.75,21.46-19.32,31.83-6.46,10.31-13.48,20.61-20.59,30.63-7.09,10.02-14.3,19.79-21.63,29.31,12.33-.14,24.17.26,36.4.79,12.18.55,24.48,1.34,36.89,2.39,6.26.5,12.38,1.14,18.47,1.86,6.12.71,12.27,1.49,18.45,2.32,12.35,1.68,24.8,3.61,37.35,5.81-16.01,19.62-32.86,38.36-49.78,55.95-17.42,17.75-35.41,34.51-53.49,50.14,23.45,4.91,47.14,10.9,71.11,17.97,23.34,7.2,46.97,15.47,70.66,24.85-19.9,16-39.89,30.91-60.1,44.73-20.78,13.89-41.6,26.67-62.52,38.38,21.95,9.58,43.99,20.24,66.06,31.98,21.43,11.75,42.88,24.57,64.27,38.49-22.63,11.72-45.31,22.34-67.81,31.87-23.06,9.47-46.13,17.84-68.91,25.13,19.65,13.73,39.07,28.54,58.35,44.45,18.65,15.78,37.13,32.66,55.24,50.59-24.59,6.91-48.77,12.78-72.86,17.51-24.59,4.58-48.58,8.19-72.58,10.62,8.23,8.71,16.38,17.69,24.43,26.92,4.02,4.62,8.03,9.3,12,14.05,4,4.76,7.93,9.56,11.66,14.36,7.57,9.63,15.03,19.53,22.38,29.67,7.3,10.12,14.73,20.61,21.44,31.06-12.68.92-25.25,1.59-37.68,2.01-12.42.43-24.68.64-37.22.38-12.43-.2-24.73-.64-36.87-1.32-6.07-.34-12.11-.73-18.11-1.19-6.11-.52-12.21-1.12-18.26-1.76,6.34,10.23,12.55,20.7,18.62,31.41,3,5.33,6.09,10.81,8.92,16.19,2.83,5.39,5.63,10.83,8.39,16.33,10.99,21.97,21.65,45.06,30.7,68.32-12.56-1.62-24.95-3.45-37.17-5.49-6.06-.99-12.24-2.15-18.4-3.39-6.14-1.22-12.23-2.5-18.27-3.82-12.09-2.65-24-5.51-35.72-8.56-11.8-3.13-23.65-6.67-35.18-10.28,4.21,11.34,8.23,22.9,12.07,34.65,3.63,11.54,7.07,23.28,10.31,35.21,3.22,11.9,6.36,24.13,9.08,36.29,2.65,12.09,5.09,24.36,7.33,36.81-5.97-2.02-11.89-4.09-17.75-6.2-5.85-2.1-11.67-4.25-17.56-6.61-11.71-4.63-23.2-9.43-34.48-14.4-22.39-9.72-44.6-21.03-65.67-32.65,7.48,47.92,10.62,97.28,9.36,147.85-10.79-6.2-21.57-12.95-32.09-19.8-10.51-6.84-20.78-13.8-30.79-20.88-9.95-6.95-19.95-14.63-29.56-22.16-9.64-7.58-19.03-15.27-28.15-23.05-.25,6.15-.63,12.16-1.1,18.15-.45,6.02-.97,12.06-1.55,18.13-1.16,12.14-2.58,24.4-4.25,36.75-3.47,24.39-8.13,48.74-13.77,73.66-18.81-17.09-36.64-34.77-53.34-52.57-16.86-18.38-32.66-37.12-47.35-55.99-6.12,23.11-13.3,46.56-21.59,70.08-8.38,22.94-17.84,46.15-28.41,69.32-14.97-20.67-28.86-41.4-41.65-62.28-12.83-21.44-24.57-42.92-35.24-64.35-10.66,21.43-22.41,42.91-35.23,64.35-12.79,20.87-26.68,41.6-41.65,62.28-10.57-23.17-20.03-46.38-28.41-69.32-8.29-23.52-15.47-46.97-21.58-70.08-14.69,18.87-30.49,37.6-47.35,55.99-16.7,17.8-34.53,35.49-53.34,52.57-5.64-24.92-10.3-49.27-13.77-73.66-1.67-12.36-3.09-24.61-4.25-36.75-.58-6.07-1.1-12.12-1.55-18.13-.47-5.99-.85-12-1.09-18.15-9.13,7.79-18.51,15.47-28.15,23.05-9.62,7.53-19.61,15.2-29.56,22.16-10.01,7.08-20.28,14.04-30.79,20.88-10.52,6.85-21.3,13.6-32.09,19.8-1.25-50.57,1.88-99.93,9.36-147.85Z"/>
  <path class="cls-1" d="m485.21,564.83l-11.42-12c-3.75-4.05-7.28-8.3-10.93-12.45,10.16-1.57,20.09-3.16,30.13-5.09,10.09-1.97,20.06-4.07,29.91-6.3-5.42,19.43-10.46,39.47-14.41,59.4-8.13-7.48-15.66-15.57-23.28-23.56Z"/>
  <path class="cls-1" d="m563.48,684.31c8.63,6.6,17.64,12.72,26.46,19.07,4.47,3.09,8.79,6.41,13.4,9.29l13.72,8.82c9.18,5.84,18.23,11.88,27.76,17.14-5.9,2.87-11.86,5.71-17.88,8.5-5.95,2.69-11.94,5.3-17.99,7.9l-19.01-12.19c-3.14-2.07-6.37-4.02-9.44-6.19l-9.22-6.52c-12.25-8.75-24.67-17.26-36.36-26.76.75-13.24,1.72-26.32,2.91-39.23l25.65,20.15Z"/>
  <path class="cls-1" d="m754.95,501.26l12.75,8.2c4.23,2.77,8.74,5.07,13.08,7.65-.75,8.28-1.38,16.64-1.9,25.07l10.15-7.21c3.36-2.44,6.76-5.02,10.1-7.54l13.49,6.89c4.48,2.32,8.94,4.7,13.6,6.65-12.52,10.67-25.11,20.29-38.34,30.1-13.14,9.64-26.95,19.45-40.75,28.19.36-16.72,1.16-33.18,2.37-49.37,1.27-16.28,3.22-32.73,5.44-48.64Z"/>
  <path class="cls-1" d="m638.67,691.41c-9.3-5.97-18.68-11.81-27.57-18.37l-13.5-9.6c-4.49-3.22-9.05-6.34-13.33-9.83,9.52-3.42,19.19-7.3,28.63-11.2,9.46-3.91,18.78-7.92,27.95-12.03-1.59,20.38-2.14,40.46-2.17,61.04Z"/>
  <path class="cls-1" d="m711.86,774.38l29.76,13.46c4.92,2.33,10.05,4.17,15.1,6.22l15.19,5.99c5.08,1.95,10.1,4.07,15.24,5.87l15.46,5.26c-10.37,7.91-21.09,15.95-31.89,23.45l-21.05-8.27-10.51-4.17c-3.51-1.37-7-2.78-10.42-4.38l-20.61-9.29c-6.84-3.16-13.79-6.09-20.45-9.63-1.91-13.18-3.57-26.24-4.98-39.19l14.53,7.44c4.88,2.41,9.62,5.09,14.63,7.24Z"/>
  <path class="cls-1" d="m890.93,566.77c.93,8.29,1.99,16.64,3.17,25.03,5.72-6.08,11.39-12.46,16.88-18.73,9.73,2.66,19.33,5.8,29.24,7.78-5.02,6.37-10.17,12.73-15.43,19.04-5.22,6.12-10.55,12.22-16.01,18.28-10.91,12.1-22.36,24.23-34.21,35.95-5.96-33.15-10.24-64.98-12.08-97.65,4.71,1.79,9.33,3.86,14.11,5.47l14.34,4.82Z"/>
  <path class="cls-1" d="m756.23,753.84l-30.22-13.67c17.55-11.06,34.47-22.45,50.75-34.12,1.25,10.2,2.89,19.93,4.58,29.99,1.72,10,3.6,20.06,5.65,30.18l-15.43-6.08c-5.12-2.09-10.34-3.93-15.34-6.3Z"/>
  <path class="cls-1" d="m925.22,752.68c6.72,18.81,14.12,37.76,22.22,56.8l-32.64-5.84-32.32-7.44c14.93-14.33,29.18-28.84,42.74-43.52Z"/>
  <path class="cls-1" d="m1017.04,616.96c4.4-7.26,8.66-14.52,12.79-21.79,10.1.73,20.17,1.78,30.34,1.75-3.66,7.25-7.43,14.5-11.34,21.75-3.89,7.14-7.9,14.1-12.03,21.16-8.27,14.07-17.03,28.12-26.29,42.13-6.29-15.51-12.07-31.1-17.36-46.53-2.64-7.72-5.17-15.42-7.57-23.1-2.37-7.87-4.6-15.74-6.72-23.57,9.89,2.07,19.98,2.95,29.99,4.32,2.6,7.94,5.32,15.97,8.18,23.89Z"/>
  <path class="cls-1" d="m971.83,850.28c-8.55,9.88-17.38,19.71-26.47,29.48-14.85-2.52-29.68-5.22-44.51-7.91-14.7-3.33-29.4-6.68-44.06-10.2-4.54-12.56-8.8-25.07-12.79-37.51,20.85,6.35,42.17,10.85,63.39,15.74,21.43,3.82,42.8,8.06,64.44,10.39Z"/>
  <path class="cls-1" d="m1046.91,819.46c11.72-17.03,22.75-34.1,33.09-51.19,10.34,17.08,21.37,34.16,33.09,51.19l-33.09.82-33.09-.82Z"/>
</svg>